<svg width="72" height="72" viewBox="0 0 72 72" fill="none" xmlns="http://www.w3.org/2000/svg">
<g id="Group 77">
<path id="BG" fill-rule="evenodd" clip-rule="evenodd" d="M0 35.9856C0 16.1113 16.1113 0 35.9856 0C55.8599 0 71.9712 16.1113 71.9712 35.9856C71.9712 55.8599 55.8599 71.9712 35.9856 71.9712C16.1113 71.9712 0 55.8599 0 35.9856Z" fill="#631A1C"/>
<path id="Vector" d="M39.8191 39.3624H44.7655L46.7441 31.3491H39.8191V27.3425C39.8191 25.2791 39.8191 23.3358 43.7762 23.3358H46.7441V16.6047C46.0991 16.5185 43.6634 16.3242 41.0913 16.3242C35.7194 16.3242 31.9047 19.6437 31.9047 25.7398V31.3491H25.9689V39.3624H31.9047V56.3906H39.8191V39.3624Z" fill="white"/>
</g>
</svg>
