<svg width="72" height="72" viewBox="0 0 72 72" fill="none" xmlns="http://www.w3.org/2000/svg">
<g id="Group 80">
<path id="BG" fill-rule="evenodd" clip-rule="evenodd" d="M0.0288086 35.9856C0.0288086 16.1113 16.1401 0 36.0144 0C55.8887 0 72 16.1113 72 35.9856C72 55.8599 55.8887 71.9712 36.0144 71.9712C16.1401 71.9712 0.0288086 55.8599 0.0288086 35.9856Z" fill="#631A1C"/>
<path id="Path" fill-rule="evenodd" clip-rule="evenodd" d="M50.7172 23.1005C52.3773 23.5637 53.6847 24.9284 54.1284 26.6615C54.9347 29.8025 54.9347 36.3562 54.9347 36.3562C54.9347 36.3562 54.9347 42.9097 54.1284 46.051C53.6847 47.784 52.3773 49.1488 50.7172 49.6121C47.7086 50.4537 35.6435 50.4537 35.6435 50.4537C35.6435 50.4537 23.5783 50.4537 20.5696 49.6121C18.9094 49.1488 17.602 47.784 17.1583 46.051C16.3522 42.9097 16.3522 36.3562 16.3522 36.3562C16.3522 36.3562 16.3522 29.8025 17.1583 26.6615C17.602 24.9284 18.9094 23.5637 20.5696 23.1005C23.5783 22.2588 35.6435 22.2588 35.6435 22.2588C35.6435 22.2588 47.7086 22.2588 50.7172 23.1005ZM32.0264 30.8397V43.0984L41.672 36.9693L32.0264 30.8397Z" fill="white"/>
</g>
</svg>
