<svg width="20" height="14" viewBox="0 0 20 14" fill="none" xmlns="http://www.w3.org/2000/svg">
<g id="Group 69">
<path id="Vector" d="M10.0288 0H10.1397C11.1636 0.00373699 16.3518 0.0411071 17.7507 0.417297C18.1736 0.532108 18.5589 0.755896 18.8682 1.0663C19.1776 1.3767 19.4 1.76284 19.5133 2.18614C19.6391 2.65949 19.7276 3.28606 19.7873 3.93256L19.7998 4.06211L19.8272 4.38598L19.8372 4.51553C19.9181 5.65406 19.9281 6.72035 19.9294 6.95329V7.04671C19.9281 7.28837 19.9169 8.4269 19.8272 9.61278L19.8172 9.74357L19.806 9.87312C19.7437 10.5856 19.6516 11.2932 19.5133 11.8139C19.4003 12.2373 19.178 12.6237 18.8687 12.9341C18.5593 13.2446 18.1738 13.4682 17.7507 13.5827C16.3057 13.9713 10.8136 13.9988 10.0525 14H9.87561C9.4907 14 7.89874 13.9925 6.22956 13.9352L6.01779 13.9278L5.90942 13.9228L5.69641 13.914L5.48341 13.9053C4.10072 13.8443 2.78406 13.7459 2.17742 13.5815C1.7545 13.4671 1.36906 13.2436 1.05972 12.9334C0.750367 12.6232 0.52797 12.2371 0.414806 11.8139C0.276537 11.2944 0.184358 10.5856 0.122075 9.87312L0.11211 9.74232L0.102144 9.61278C0.0406679 8.76871 0.00660184 7.92288 0 7.07661L0 6.92339C0.00249132 6.65557 0.0124566 5.73005 0.0797224 4.7086L0.088442 4.5803L0.092179 4.51553L0.102144 4.38598L0.129549 4.06211L0.142006 3.93256C0.201797 3.28606 0.290239 2.65824 0.416051 2.18614C0.529025 1.76267 0.751337 1.37635 1.0607 1.06589C1.37006 0.755437 1.7556 0.531764 2.17866 0.417297C2.7853 0.255361 4.10197 0.155708 5.48465 0.0934246L5.69641 0.084705L5.91067 0.0772313L6.01779 0.0734942L6.2308 0.0647746C7.41631 0.0266257 8.6023 0.00544711 9.78841 0.00124572H10.0288V0ZM7.97224 3.99858V10.0002L13.1505 7.00062L7.97224 3.99858Z" fill="white"/>
</g>
</svg>
