<svg width="73" height="72" viewBox="0 0 73 72" fill="none" xmlns="http://www.w3.org/2000/svg">
<g id="Group 78">
<path id="BG" fill-rule="evenodd" clip-rule="evenodd" d="M0.342957 35.9856C0.342957 16.1113 16.4543 0 36.3285 0C56.2028 0 72.3141 16.1113 72.3141 35.9856C72.3141 55.8599 56.2028 71.9712 36.3285 71.9712C16.4543 71.9712 0.342957 55.8599 0.342957 35.9856Z" fill="#631A1C"/>
<path id="Path" fill-rule="evenodd" clip-rule="evenodd" d="M36.3304 16.3242C30.9904 16.3242 30.3203 16.3476 28.2229 16.443C26.1297 16.5389 24.7009 16.8703 23.4507 17.3565C22.1575 17.8587 21.0605 18.5305 19.9676 19.6238C18.8739 20.7167 18.2021 21.8137 17.6982 23.1065C17.2108 24.3571 16.879 25.7863 16.7847 27.8786C16.6909 29.9759 16.6664 30.6465 16.6664 35.9864C16.6664 41.3264 16.6901 41.9945 16.7851 44.0918C16.8814 46.185 17.2128 47.6138 17.6986 48.864C18.2012 50.1572 18.873 51.2542 19.9664 52.347C21.0589 53.4408 22.1559 54.1142 23.4483 54.6164C24.6993 55.1026 26.1285 55.434 28.2213 55.5299C30.3186 55.6253 30.9884 55.6487 36.328 55.6487C41.6684 55.6487 42.3365 55.6253 44.4338 55.5299C46.527 55.434 47.9575 55.1026 49.2085 54.6164C50.5013 54.1142 51.5967 53.4408 52.6891 52.347C53.7829 51.2542 54.4547 50.1572 54.9585 48.8644C55.4419 47.6138 55.7737 46.1846 55.872 44.0922C55.9662 41.9949 55.9908 41.3264 55.9908 35.9864C55.9908 30.6465 55.9662 29.9764 55.872 27.8791C55.7737 25.7858 55.4419 24.3571 54.9585 23.1069C54.4547 21.8137 53.7829 20.7167 52.6891 19.6238C51.5954 18.5301 50.5017 17.8583 49.2073 17.3565C47.9538 16.8703 46.5242 16.5389 44.4309 16.443C42.3336 16.3476 41.6659 16.3242 36.3243 16.3242H36.3304ZM34.5664 19.8675C35.09 19.8666 35.6741 19.8675 36.3303 19.8675C41.5802 19.8675 42.2024 19.8863 44.2756 19.9805C46.1927 20.0682 47.2331 20.3885 47.9262 20.6576C48.8438 21.014 49.498 21.44 50.1858 22.1282C50.874 22.8164 51.3 23.4718 51.6572 24.3894C51.9263 25.0816 52.2471 26.1221 52.3343 28.0392C52.4285 30.1119 52.449 30.7345 52.449 35.9819C52.449 41.2292 52.4285 41.8519 52.3343 43.9246C52.2467 45.8417 51.9263 46.8821 51.6572 47.5744C51.3008 48.492 50.874 49.1453 50.1858 49.8331C49.4976 50.5213 48.8442 50.9473 47.9262 51.3037C47.234 51.574 46.1927 51.8935 44.2756 51.9812C42.2028 52.0754 41.5802 52.0959 36.3303 52.0959C31.0801 52.0959 30.4578 52.0754 28.3851 51.9812C26.468 51.8927 25.4275 51.5724 24.734 51.3033C23.8164 50.9469 23.161 50.5209 22.4728 49.8327C21.7846 49.1445 21.3586 48.4907 21.0014 47.5728C20.7323 46.8805 20.4116 45.84 20.3243 43.923C20.2301 41.8502 20.2112 41.2276 20.2112 35.977C20.2112 30.7263 20.2301 30.107 20.3243 28.0342C20.412 26.1172 20.7323 25.0767 21.0014 24.3836C21.3578 23.4661 21.7846 22.8106 22.4728 22.1225C23.161 21.4343 23.8164 21.0083 24.734 20.6511C25.4271 20.3807 26.468 20.0612 28.3851 19.9731C30.1989 19.8912 30.9019 19.8666 34.5664 19.8625V19.8675ZM46.826 23.1322C45.5233 23.1322 44.4665 24.1878 44.4665 25.4909C44.4665 26.7935 45.5233 27.8503 46.826 27.8503C48.1286 27.8503 49.1855 26.7935 49.1855 25.4909C49.1855 24.1882 48.1286 23.1322 46.826 23.1322ZM36.3305 25.889C30.7541 25.889 26.233 30.4101 26.233 35.9864C26.233 41.5627 30.7541 46.0817 36.3305 46.0817C41.9068 46.0817 46.4263 41.5627 46.4263 35.9864C46.4263 30.4101 41.9068 25.889 36.3305 25.889ZM36.3304 29.4323C39.9499 29.4323 42.8845 32.3665 42.8845 35.9864C42.8845 39.6059 39.9499 42.5405 36.3304 42.5405C32.7104 42.5405 29.7762 39.6059 29.7762 35.9864C29.7762 32.3665 32.7104 29.4323 36.3304 29.4323Z" fill="white"/>
</g>
</svg>
