<svg width="206" height="27" viewBox="0 0 206 27" fill="none" xmlns="http://www.w3.org/2000/svg">
<g id="Group 70">
<path id="Vector" d="M59 21.7L68.27 27.0005L65.81 17.0105L74 10.2889L63.215 9.42207L59 0.000488281L54.785 9.42207L44 10.2889L52.19 17.0105L49.73 27.0005L59 21.7Z" fill="#FCB100"/>
<path id="Vector_2" d="M14.5 21.7L23.461 27.0005L21.083 17.0105L29 10.2889L18.5745 9.42207L14.5 0.000488281L10.4255 9.42207L0 10.2889L7.917 17.0105L5.539 27.0005L14.5 21.7Z" fill="#FCB100"/>
<path id="Vector_3" d="M147 21.7L156.27 27.0005L153.81 17.0105L162 10.2889L151.215 9.42207L147 0.000488281L142.785 9.42207L132 10.2889L140.19 17.0105L137.73 27.0005L147 21.7Z" fill="#FCB100"/>
<path id="Vector_4" d="M103 21.7L112.27 27.0005L109.81 17.0105L118 10.2889L107.215 9.42207L103 0.000488281L98.785 9.42207L88 10.2889L96.19 17.0105L93.73 27.0005L103 21.7Z" fill="#FCB100"/>
<path id="Vector_5" d="M191.5 21.7L200.461 27.0005L198.083 17.0105L206 10.2889L195.575 9.42207L191.5 0.000488281L187.425 9.42207L177 10.2889L184.917 17.0105L182.539 27.0005L191.5 21.7Z" fill="#FCB100"/>
</g>
</svg>
