<svg width="73" height="72" viewBox="0 0 73 72" fill="none" xmlns="http://www.w3.org/2000/svg">
<g id="Group 79">
<path id="BG" fill-rule="evenodd" clip-rule="evenodd" d="M0.685913 35.9856C0.685913 16.1113 16.7972 0 36.6715 0C56.5458 0 72.6571 16.1113 72.6571 35.9856C72.6571 55.8599 56.5458 71.9712 36.6715 71.9712C16.7972 71.9712 0.685913 55.8599 0.685913 35.9856Z" fill="#631A1C"/>
<path id="Path" fill-rule="evenodd" clip-rule="evenodd" d="M36.0392 27.8255L36.1341 29.3338L34.5526 29.1491C28.7958 28.4411 23.7665 26.0401 19.4963 22.0076L17.4087 20.0068L16.871 21.4843C15.7322 24.778 16.4598 28.2564 18.8321 30.5959C20.0973 31.8888 19.8126 32.0735 17.6301 31.3039C16.871 31.0576 16.2067 30.873 16.1434 30.9653C15.922 31.1808 16.6812 33.982 17.2822 35.0901C18.1046 36.6293 19.781 38.1376 21.6156 39.0303L23.1655 39.7383L21.3309 39.7691C19.5596 39.7691 19.4963 39.7999 19.6861 40.4463C20.3187 42.4471 22.8175 44.5711 25.601 45.4946L27.5622 46.141L25.8541 47.1261C23.3236 48.5421 20.3503 49.3424 17.377 49.404C15.9537 49.4348 14.7833 49.5579 14.7833 49.6502C14.7833 49.9581 18.6423 51.6819 20.8881 52.3591C27.6254 54.3599 35.628 53.498 41.6378 50.0812C45.908 47.6494 50.1782 42.8165 52.1709 38.1376C53.2463 35.6442 54.3218 31.0884 54.3218 28.9029C54.3218 27.4869 54.4167 27.3022 56.188 25.6092C57.2318 24.6241 58.2124 23.5467 58.4022 23.2389C58.7185 22.654 58.6868 22.654 57.0737 23.1773C54.385 24.1008 54.0055 23.9777 55.334 22.5925C56.3145 21.6074 57.4849 19.8221 57.4849 19.2988C57.4849 19.2064 57.0104 19.3603 56.4727 19.6374C55.9033 19.9452 54.6381 20.4069 53.6892 20.684L51.9811 21.2073L50.4312 20.1914C49.5772 19.6374 48.3752 19.0217 47.7426 18.837C46.1294 18.4061 43.6622 18.4676 42.2072 18.9602C38.2534 20.3454 35.7545 23.9161 36.0392 27.8255Z" fill="white"/>
</g>
</svg>
