<svg width="38" height="38" viewBox="0 0 38 38" fill="none" xmlns="http://www.w3.org/2000/svg">
<path id="Vector" fill-rule="evenodd" clip-rule="evenodd" d="M37.494 0.505954C37.9632 0.975146 38.1222 1.67164 37.903 2.29792L25.8121 36.8433C25.5781 37.5118 24.9598 37.9697 24.2522 37.9986C23.5446 38.0274 22.891 37.6214 22.6034 36.9742L15.9641 22.0359L1.02577 15.3966C0.378593 15.109 -0.0274248 14.4554 0.00144449 13.7478C0.0303137 13.0402 0.48822 12.4219 1.15667 12.1879L35.7021 0.0970199C36.3284 -0.12218 37.0249 0.0367619 37.494 0.505954ZM19.3329 21.1098L23.9907 31.59L32.142 8.30077L19.3329 21.1098ZM29.6992 5.85803L6.41004 14.0093L16.8902 18.6671L29.6992 5.85803Z" fill="#631A1C"/>
</svg>
